<svg xmlns="http://www.w3.org/2000/svg" width="805" height="600"><rect width="805" height="600" x="0" y="0" fill="#FFFFFF" id="backgorund"/><g transform="translate(402.5,300)" id="viz"><path fill="#b153c5" display="" d="M0.49999900911672546,-192.33268342146636A192.33333333333334,192.33333333333334,0,0,1,175.82728641450532,77.95432292838306L88.47124149289601,38.952328212189336A96.66666666666667,96.66666666666667,0,0,0,0.4999990091167196,-96.66537355969473Z"><title>Modern orchestra</title></path><path fill="#41daac" display="" d="M175.41960360749738,78.86744436901456A192.33333333333334,192.33333333333334,0,0,1,-86.0701420135482,172.00012140948843L-43.03627138140825,86.55821041374543A96.66666666666667,96.66666666666667,0,0,0,88.06355868588807,39.86544965282083Z"><title>Early Romantic orchestra</title></path><path fill="#e9b74b" display="" d="M-86.96325525978958,171.5502939249356A192.33333333333334,192.33333333333334,0,0,1,-130.97750097803436,-140.84390419418273L-66.01115040294043,-70.61849946667533A96.66666666666667,96.66666666666667,0,0,0,-43.92938462764956,86.10838292919263Z"><title>Late Romantic orchestra</title></path><path fill="#92cf50" display="" d="M-130.24344390400748,-141.52298905525834A192.33333333333334,192.33333333333334,0,0,1,-0.4999990091167918,-192.33268342146636L-0.4999990091167314,-96.66537355969473A96.66666666666667,96.66666666666667,0,0,0,-65.27709332891364,-71.29758432775087Z"><title>Classical orchestra</title></path><path fill="#b153c5" display="" d="M0.49999900911674494,-288.9995674754391A289,289,0,0,1,17.467966518202495,-288.4716106408375L11.520391231358488,-192.9897882367205A193.33333333333334,193.33333333333334,0,0,0,0.49999900911672607,-193.33268678309074Z"><title>Baritone horn</title></path><path fill="#b153c5" display="" d="M18.466030137403077,-288.40944112661174A289,289,0,0,1,35.368351876515455,-286.82761318523535L23.496211316193527,-191.90024969124602A193.33333333333334,193.33333333333334,0,0,0,12.518454850559046,-192.9276187224947Z"><title>Bass Drum</title></path><path fill="#b153c5" display="" d="M36.3606197824315,-286.7035146785568A289,289,0,0,1,53.13190395232853,-284.07393541541353L35.381129123989176,-190.06828635963808A193.33333333333334,193.33333333333334,0,0,0,24.488479222109543,-191.77615118456748Z"><title>Bassoons</title></path><path fill="#b153c5" display="" d="M54.114537253197135,-283.8883880292964A289,289,0,0,1,70.6898990135356,-280.22123077571433L47.12916421659656,-187.50098575213642A193.33333333333334,193.33333333333334,0,0,0,36.363762424857754,-189.88273897352093Z"><title>Celesta</title></path><path fill="#b153c5" display="" d="M71.65909609200911,-279.9749523569496A289,289,0,0,1,87.9744085881873,-275.2844046319346L58.6948657285002,-184.20828025604905A193.33333333333334,193.33333333333334,0,0,0,48.09836129507004,-187.2547073333717Z"><title>Cellos</title></path><path fill="#b153c5" display="" d="M88.9264198090523,-274.97834798388067A289,289,0,0,1,104.91856226655229,-269.28255660536126L70.0334882073868,-180.20290870927582A193.33333333333334,193.33333333333334,0,0,0,59.64687694936518,-183.9022236079952Z"><title>Clarinets</title></path><path fill="#b153c5" display="" d="M105.84970448333979,-268.9179058017328A289,289,0,0,1,121.45680640974217,-262.238906680047L81.10116472560792,-175.50036711621885A193.33333333333334,193.33333333333334,0,0,0,70.96463042417427,-179.83825790564737Z"><title>Cymbals</title></path><path fill="#b153c5" display="" d="M122.36347721410583,-261.8170724839635A289,289,0,0,1,137.52515776400506,-254.18070536920288L91.8550765928009,-170.1188486967522A193.33333333333334,193.33333333333334,0,0,0,82.00783552997153,-175.07853292013536Z"><title>Double basses</title></path><path fill="#b153c5" display="" d="M138.4038494227391,-253.70331977522042A289,289,0,0,1,153.0614509995048,-245.1391282882563L102.25361901308388,-164.07917350018823A193.33333333333334,193.33333333333334,0,0,0,92.73376825153497,-169.64146310276973Z"><title>Flutes</title></path><path fill="#b153c5" display="" d="M153.90876402528266,-244.60803820849767A289,289,0,0,1,168.00557921590524,-235.1491555424518L112.2565620459283,-157.40470785655185A193.33333333333334,193.33333333333334,0,0,0,103.10093203886169,-163.54808342042963Z"><title>French Horns</title></path><path fill="#b153c5" display="" d="M168.81823551923523,-234.56641566126217A289,289,0,0,1,182.2997264842909,-224.24943639561891L121.82520624798376,-150.1212739767885A193.33333333333334,193.33333333333334,0,0,0,113.06921834925826,-156.82196797536224Z"><title>Glockenspiel</title></path><path fill="#b153c5" display="" d="M183.0745820558079,-223.6173012203914A289,289,0,0,1,195.88859152576418,-212.4821397436789L130.9225323937061,-142.25705005164687A193.33333333333334,193.33333333333334,0,0,0,122.60006181950074,-149.48913880156104Z"><title>Harps</title></path><path fill="#b153c5" display="" d="M196.62264859979103,-211.80305488260336A289,289,0,0,1,208.7196016613503,-199.89279097137864L139.51334469554948,-133.8424612357326A193.33333333333334,193.33333333333334,0,0,0,131.65658946773289,-141.57796519057132Z"><title>Marimba</title></path><path fill="#b153c5" display="" d="M209.4100203136707,-199.16938367185858A289,289,0,0,1,220.74311620547883,-186.53009582342057L147.56440696963102,-124.91006193849593A193.33333333333334,193.33333333333334,0,0,0,140.20376334786988,-133.1190539362126Z"><title>Oboes</title></path><path fill="#b153c5" display="" d="M221.38722534045277,-185.76516480776363A289,289,0,0,1,231.91261851615303,-172.44575197139903L155.0445712200696,-115.49440987754579A193.33333333333334,193.33333333333334,0,0,0,148.20851610460494,-124.145130922839Z"><title>Piano</title></path><path fill="#b153c5" display="" d="M232.5079262006665,-171.64225660910375A289,289,0,0,1,242.18489595880064,-157.6942490055516L161.9248981445307,-105.63193238155375A193.33333333333334,193.33333333333334,0,0,0,155.63987890458304,-114.69091451525051Z"><title>Pipe organ</title></path><path fill="#b153c5" display="" d="M242.72909906307103,-156.85529786408188A289,289,0,0,1,251.52020708756254,-142.3326576251201L168.17876909476533,-95.36078545999602A193.33333333333334,193.33333333333334,0,0,0,162.46910124880105,-104.79298124008407Z"><title>Snare Drum</title></path><path fill="#b153c5" display="" d="M252.0112001955002,-141.46149644346167A289,289,0,0,1,259.8824353972262,-126.42040884290226L173.78198905898898,-84.72070618496527A193.33333333333334,193.33333333333334,0,0,0,168.669762202703,-94.4896242783376Z"><title>Tam-tam</title></path><path fill="#b153c5" display="" d="M260.31831895188037,-125.52040797442888A289,289,0,0,1,267.2392290509681,-110.01906405820863L178.7128802676819,-73.75285895615828A193.33333333333334,193.33333333333334,0,0,0,174.2178726136432,-83.82070531649188Z"><title>Tambourine</title></path><path fill="#b153c5" display="" d="M267.61831670354377,-109.0937054314398A289,289,0,0,1,273.5621260433255,-93.19207688776808L182.95236606066797,-62.499676243810484A193.33333333333334,193.33333333333334,0,0,0,179.09196792025756,-72.82750032938944Z"><title>Tenor drum</title></path><path fill="#b153c5" display="" d="M273.8829511773391,-92.24494053546393A289,289,0,0,1,278.8266643141665,-76.00454767601154L186.48404469100714,-51.00469442571178A193.33333333333334,193.33333333333334,0,0,0,183.27319119468154,-61.55253989150635Z"><title>Timpani</title></path><path fill="#b153c5" display="" d="M279.0879857195003,-75.03929788472163A289,289,0,0,1,283.0124763876482,-58.52297163448629L189.2942527801679,-39.31238535341859A193.33333333333334,193.33333333333334,0,0,0,186.74536609634094,-50.03944463442188Z"><title>Triangle</title></path><path fill="#b153c5" display="" d="M283.21328306255117,-57.54334276813678A289,289,0,0,1,286.10336817002417,-40.81498158480041L191.3721181789845,-27.467984299299612A193.33333333333334,193.33333333333334,0,0,0,189.49505945507087,-38.33275648706909Z"><title>Trombones</title></path><path fill="#b153c5" display="" d="M286.2428832324813,-39.82476363716544A289,289,0,0,1,288.08738160144736,-22.949086300374656L192.70960202989002,-15.517314950054738A193.33333333333334,193.33333333333334,0,0,0,191.5116332414416,-26.477766351664652Z"><title>Trumpets</title></path><path fill="#b153c5" display="" d="M288.1650652947851,-21.95211023232678A289,289,0,0,1,288.9568409193803,-4.994405459307241L193.3015298676945,-3.5066121237732486A193.33333333333334,193.33333333333334,0,0,0,192.78728572322777,-14.520338882006858Z"><title>Tubas</title></path><path fill="#b153c5" display="" d="M288.9723927004806,-3.9945283775739813A289,289,0,0,1,288.70838235462924,12.97959776623313L193.14561163858565,8.51765710359544A193.33333333333334,193.33333333333334,0,0,0,193.31708164879478,-2.5067350420399888Z"><title>Tubular bells</title></path><path fill="#b153c5" display="" d="M288.6617420566722,13.978507531465851A289,289,0,0,1,287.34296714511396,30.903385449525913L192.24245055990207,20.50897317033162A193.33333333333334,193.33333333333334,0,0,0,193.0989713406286,9.51656686882816Z"><title>Vibraphone</title></path><path fill="#b153c5" display="" d="M287.23431521035167,31.897463310431803A289,289,0,0,1,284.8658778170246,48.7076139380283L190.5955407864027,32.42094400409234A193.33333333333334,193.33333333333334,0,0,0,192.1337986251398,21.503051031237504Z"><title>Violas</title></path><path fill="#b153c5" display="" d="M284.6956345986852,49.69301400048021A289,289,0,0,1,281.28669774775443,66.32340213049568L188.21125389206057,44.20748450382688A193.33333333333334,193.33333333333334,0,0,0,190.42529756806326,33.406344066544264Z"><title>Violins 1</title></path><path fill="#b153c5" display="" d="M281.055521883777,67.2963120730829A289,289,0,0,1,276.6192740896742,83.68259796458103L185.09881421968126,55.82299483407985A193.33333333333334,193.33333333333334,0,0,0,187.9800780280831,45.18039444641411Z"><title>Violins 2</title></path><path fill="#b153c5" display="" d="M276.3280599545665,84.63925378774019A289,289,0,0,1,270.8816641981897,100.71804208392447L181.27026319371225,67.22253684189603A193.33333333333334,193.33333333333334,0,0,0,184.80760008457358,56.779650657238996Z"><title>Wood block</title></path><path fill="#b153c5" display="" d="M270.5315384428672,101.65474267212258A289,289,0,0,1,264.0960657713418,117.3638276646561L176.7404127343112,78.36200791380416A193.33333333333334,193.33333333333334,0,0,0,180.92013743838976,68.15923743009412Z"><title>Xylophone</title></path><path fill="#41daac" display="" d="M263.68838296433404,118.27694910528727A289,289,0,0,1,256.28873097122505,133.55555539609364L171.52678795290436,89.1983116002605A193.33333333333334,193.33333333333334,0,0,0,176.33272992730338,79.27512935443542Z"><title>Bass Clarinet</title></path><path fill="#41daac" display="" d="M255.8250683581126,134.4415649996943A289,289,0,0,1,247.4898648594717,149.23058262916632L165.64955935093448,99.6895243474409A193.33333333333334,193.33333333333334,0,0,0,171.06312533979192,90.08432120386114Z"><title>Bass Drum</title></path><path fill="#41daac" display="" d="M246.97201626083043,150.08605259670236A289,289,0,0,1,237.73350853973733,164.32826572865253L159.13146478411008,109.7950576913247A193.33333333333334,193.33333333333334,0,0,0,165.13171075229323,100.54499431497692Z"><title>Bassoons</title></path><path fill="#41daac" display="" d="M237.16347741119444,165.1498864130093A289,289,0,0,1,227.05740745928313,178.79019469162475L151.99772149405823,119.47581528657794A193.33333333333334,193.33333333333334,0,0,0,158.56143365556719,110.61667837568146Z"><title>Cellos</title></path><path fill="#41daac" display="" d="M226.43739914053648,179.57478740198846A289,289,0,0,1,215.50286537917316,192.56041912440358L144.27592854771592,128.69434416271815A193.33333333333334,193.33333333333334,0,0,0,151.37771317531164,120.26040799694162Z"><title>Clarinets</title></path><path fill="#41daac" display="" d="M214.83527856196082,193.30494842399844A289,289,0,0,1,203.114584578047,205.5856647037614L135.99596006190157,137.41497962238125A193.33333333333334,193.33333333333334,0,0,0,143.60834173050364,129.43887346231296Z"><title>Contrabassoon</title></path><path fill="#41daac" display="" d="M202.40200202607454,206.28725015336485A289,289,0,0,1,189.94049290768766,217.81553928492946L127.18984962616052,145.60398322110717A193.33333333333334,193.33333333333334,0,0,0,135.28337750992912,138.1165650719847Z"><title>Cornet</title></path><path fill="#41daac" display="" d="M189.18567146441728,218.47146658673205A289,289,0,0,1,176.03155836947408,229.20272785901662L117.89166637103038,153.2296732948271A193.33333333333334,193.33333333333334,0,0,0,126.43502818289014,146.25991052290973Z"><title>Cymbals</title></path><path fill="#41daac" display="" d="M175.2374182924327,229.81045935771283A289,289,0,0,1,161.441591929085,239.70317560558684L108.13738316119333,160.26254753006717A193.33333333333334,193.33333333333334,0,0,0,117.097526293989,153.83740479352326Z"><title>Double basses</title></path><path fill="#41daac" display="" d="M160.61120559195533,240.2603601060705A289,289,0,0,1,146.22703933232646,249.27625833220108L97.96473742345104,166.67539710266803A193.33333333333334,193.33333333333334,0,0,0,107.30699682406367,160.81973203055082Z"><title>English Horn</title></path><path fill="#41daac" display="" d="M145.36361933853007,249.7807401958825A289,289,0,0,1,130.446762727507,257.88493964152593L87.41308514795153,172.44341194343946A193.33333333333334,193.33333333333334,0,0,0,97.10131742965464,167.17987896634938Z"><title>Flutes</title></path><path fill="#41daac" display="" d="M129.55364948126567,258.33476712607876A289,289,0,0,1,114.16181293922071,265.49591421796L76.52324862750892,177.54427672349857A193.33333333333334,193.33333333333334,0,0,0,86.51997190171022,172.89323942799226Z"><title>French Horns</title></path><path fill="#41daac" display="" d="M113.24246172218156,265.88934702823326A289,289,0,0,1,97.43519327456701,272.07973667942963L65.33735852408287,181.95825718794197A193.33333333333334,193.33333333333334,0,0,0,75.60389741046981,177.93770953377177Z"><title>Glockenspiel</title></path><path fill="#41daac" display="" d="M96.49316087798901,272.41525270031144A289,289,0,0,1,80.3316157755951,277.6109354958521L53.8986908734321,185.6682765038443A193.33333333333334,193.33333333333334,0,0,0,64.3953261275049,182.29377320882375Z"><title>Harps</title></path><path fill="#41daac" display="" d="M79.37054673981461,277.8872366810374A289,289,0,0,1,62.91725086098457,282.0681115335371L42.25149965853917,188.65998132720742A193.33333333333334,193.33333333333334,0,0,0,52.93762183765164,185.94457768902961Z"><title>Oboes</title></path><path fill="#41daac" display="" d="M61.94086337539686,282.2841289274167A289,289,0,0,1,45.259471325550344,285.43402084427794L30.440845599547405,190.92179733325972A193.33333333333334,193.33333333333334,0,0,0,41.27511217295148,188.875998721087Z"><title>Piccolo</title></path><path fill="#41daac" display="" d="M44.27154284365709,285.58891871752A289,289,0,0,1,27.426591687987816,287.695641378837L18.512421822588493,192.4449739952705A193.33333333333334,193.33333333333334,0,0,0,29.45291711765417,191.07669520650177Z"><title>Snare Drum</title></path><path fill="#41daac" display="" d="M26.430944313163366,287.78882046166154A289,289,0,0,1,9.48760389527133,288.8442233667248L6.51237708195413,193.22361843863763A193.33333333333334,193.33333333333334,0,0,0,17.516774447764067,192.538153078095Z"><title>Tambourine</title></path><path fill="#41daac" display="" d="M8.488089593787272,288.875323167362A289,289,0,0,1,-8.488089593785826,288.87532316736207L-5.512862780469129,193.2547182392748A193.33333333333334,193.33333333333334,0,0,0,5.512862780470097,193.25471823927478Z"><title>Timpani</title></path><path fill="#41daac" display="" d="M-9.487603895269883,288.8442233667249A289,289,0,0,1,-26.43094431316193,287.78882046166166L-17.516774447763108,192.5381530780951A193.33333333333334,193.33333333333334,0,0,0,-6.5123770819531615,193.22361843863766Z"><title>Triangle</title></path><path fill="#41daac" display="" d="M-27.42659168798638,287.69564137883714A289,289,0,0,1,-44.27154284365566,285.58891871752024L-29.452917117653215,191.0766952065019A193.33333333333334,193.33333333333334,0,0,0,-18.51242182258753,192.44497399527057Z"><title>Trombones</title></path><path fill="#41daac" display="" d="M-45.25947132554892,285.43402084427817A289,289,0,0,1,-61.940863375395445,282.28412892741704L-41.275112172950536,188.8759987210872A193.33333333333334,193.33333333333334,0,0,0,-30.440845599546456,190.9217973332599Z"><title>Trumpets</title></path><path fill="#41daac" display="" d="M-62.91725086098317,282.06811153353743A289,289,0,0,1,-79.37054673981324,277.8872366810378L-52.93762183765071,185.9445776890299A193.33333333333334,193.33333333333334,0,0,0,-42.25149965853822,188.65998132720762Z"><title>Tubas</title></path><path fill="#41daac" display="" d="M-80.33161577559372,277.6109354958525A289,289,0,0,1,-96.49316087798765,272.4152527003119L-64.39532612750399,182.29377320882406A193.33333333333334,193.33333333333334,0,0,0,-53.89869087343117,185.6682765038446Z"><title>Violas</title></path><path fill="#41daac" display="" d="M-97.43519327456565,272.07973667943014A289,289,0,0,1,-113.24246172218024,265.88934702823383L-75.60389741046893,177.93770953377216A193.33333333333334,193.33333333333334,0,0,0,-65.33735852408196,181.95825718794228Z"><title>Violins 1</title></path><path fill="#41daac" display="" d="M-114.16181293921937,265.4959142179606A289,289,0,0,1,-129.5536494812644,258.3347671260794L-86.51997190170933,172.89323942799268A193.33333333333334,193.33333333333334,0,0,0,-76.52324862750805,177.54427672349894Z"><title>Violins 2</title></path><path fill="#e9b74b" display="" d="M-130.44676272750652,257.8849396415262A289,289,0,0,1,-145.36361933852953,249.78074019588274L-97.10131742965426,167.1798789663496A193.33333333333334,193.33333333333334,0,0,0,-87.41308514795125,172.4434119434396Z"><title>Bass Clarinet</title></path><path fill="#e9b74b" display="" d="M-146.22703933232597,249.27625833220137A289,289,0,0,1,-160.61120559195484,240.2603601060708L-107.30699682406332,160.81973203055105A193.33333333333334,193.33333333333334,0,0,0,-97.96473742345074,166.6753971026682Z"><title>Bass Drum</title></path><path fill="#e9b74b" display="" d="M-161.44159192908452,239.70317560558715A289,289,0,0,1,-175.2374182924322,229.81045935771317L-117.09752629398865,153.83740479352352A193.33333333333334,193.33333333333334,0,0,0,-108.13738316119304,160.2625475300674Z"><title>Bassoons</title></path><path fill="#e9b74b" display="" d="M-176.03155836947363,229.202727859017A289,289,0,0,1,-189.18567146441683,218.47146658673245L-126.43502818288981,146.25991052291002A193.33333333333334,193.33333333333334,0,0,0,-117.89166637103011,153.22967329482728Z"><title>Celesta</title></path><path fill="#e9b74b" display="" d="M-189.94049290768723,217.81553928492986A289,289,0,0,1,-202.40200202607411,206.28725015336525L-135.2833775099288,138.116565071985A193.33333333333334,193.33333333333334,0,0,0,-127.18984962616027,145.6039832211074Z"><title>Cellos</title></path><path fill="#e9b74b" display="" d="M-203.11458457804656,205.58566470376178A289,289,0,0,1,-214.83527856196045,193.30494842399887L-143.60834173050335,129.43887346231327A193.33333333333334,193.33333333333334,0,0,0,-135.9959600619013,137.4149796223815Z"><title>Chimes</title></path><path fill="#e9b74b" display="" d="M-215.50286537917276,192.560419124404A289,289,0,0,1,-226.43739914053623,179.5747874019888L-151.37771317531144,120.26040799694185A193.33333333333334,193.33333333333334,0,0,0,-144.27592854771572,128.6943441627184Z"><title>Clarinets</title></path><path fill="#e9b74b" display="" d="M-227.05740745928284,178.7901946916251A289,289,0,0,1,-237.16347741119424,165.14988641300954L-158.56143365556704,110.61667837568164A193.33333333333334,193.33333333333334,0,0,0,-151.99772149405808,119.47581528657811Z"><title>Contrabassoon</title></path><path fill="#e9b74b" display="" d="M-237.73350853973716,164.32826572865275A289,289,0,0,1,-246.97201626083034,150.08605259670247L-165.13171075229317,100.54499431497705A193.33333333333334,193.33333333333334,0,0,0,-159.13146478411,109.7950576913248Z"><title>Cymbals</title></path><path fill="#e9b74b" display="" d="M-247.48986485947162,149.23058262916646A289,289,0,0,1,-255.8250683581126,134.44156499969432L-171.0631253397919,90.08432120386118A193.33333333333334,193.33333333333334,0,0,0,-165.64955935093448,99.68952434744095Z"><title>Double basses</title></path><path fill="#e9b74b" display="" d="M-256.288730971225,133.55555539609367A289,289,0,0,1,-263.6883829643341,118.27694910528717L-176.3327299273034,79.2751293544354A193.33333333333334,193.33333333333334,0,0,0,-171.52678795290436,89.19831160026048Z"><title>English Horn</title></path><path fill="#e9b74b" display="" d="M-264.096065771342,117.36382766465567A289,289,0,0,1,-270.5315384428674,101.65474267212208L-180.92013743838984,68.15923743009382A193.33333333333334,193.33333333333334,0,0,0,-176.74041273431135,78.36200791380384Z"><title>Flutes</title></path><path fill="#e9b74b" display="" d="M-270.8816641981899,100.71804208392396A289,289,0,0,1,-276.3280599545667,84.6392537877396L-184.8076000845737,56.77965065723863A193.33333333333334,193.33333333333334,0,0,0,-181.2702631937124,67.22253684189565Z"><title>French Horns</title></path><path fill="#e9b74b" display="" d="M-276.6192740896744,83.68259796458044A289,289,0,0,1,-281.05552188377715,67.29631207308225L-187.9800780280832,45.18039444641371A193.33333333333334,193.33333333333334,0,0,0,-185.09881421968137,55.82299483407942Z"><title>Glockenspiel</title></path><path fill="#e9b74b" display="" d="M-281.2866977477546,66.32340213049501A289,289,0,0,1,-284.69563459868533,49.6930140004795L-190.42529756806334,33.40634406654382A193.33333333333334,193.33333333333334,0,0,0,-188.2112538920607,44.20748450382641Z"><title>Harps</title></path><path fill="#e9b74b" display="" d="M-284.86587781702474,48.70761393802756A289,289,0,0,1,-287.2343152103517,31.897463310431014L-192.13379862513986,21.50305103123701A193.33333333333334,193.33333333333334,0,0,0,-190.59554078640278,32.42094400409182Z"><title>Oboes</title></path><path fill="#e9b74b" display="" d="M-287.342967145114,30.903385449525118A289,289,0,0,1,-288.6617420566722,13.978507531464997L-193.09897134062862,9.51656686882762A193.33333333333334,193.33333333333334,0,0,0,-192.24245055990215,20.508973170331053Z"><title>Piano</title></path><path fill="#e9b74b" display="" d="M-288.7083823546293,12.979597766232263A289,289,0,0,1,-288.97239270048055,-3.9945283775749014L-193.31708164879478,-2.5067350420405727A193.33333333333334,193.33333333333334,0,0,0,-193.14561163858568,8.517657103594829Z"><title>Piccolo</title></path><path fill="#e9b74b" display="" d="M-288.9568409193803,-4.994405459308174A289,289,0,0,1,-288.16506529478505,-21.952110232327758L-192.7872857232277,-14.52033888200748A193.33333333333334,193.33333333333334,0,0,0,-193.30152986769448,-3.506612123773905Z"><title>Snare Drum</title></path><path fill="#e9b74b" display="" d="M-288.0873816014473,-22.949086300375654A289,289,0,0,1,-286.2428832324811,-39.824763637166484L-191.5116332414415,-26.477766351665316A193.33333333333334,193.33333333333334,0,0,0,-192.70960202988996,-15.517314950055436Z"><title>Tam-tam</title></path><path fill="#e9b74b" display="" d="M-286.10336817002405,-40.814981584801465A289,289,0,0,1,-283.21328306255094,-57.54334276813788L-189.49505945507073,-38.33275648706979A193.33333333333334,193.33333333333334,0,0,0,-191.37211817898438,-27.467984299300355Z"><title>Tambourine</title></path><path fill="#e9b74b" display="" d="M-283.01247638764795,-58.5229716344874A289,289,0,0,1,-279.0879857195,-75.03929788472277L-186.74536609634075,-50.03944463442263A193.33333333333334,193.33333333333334,0,0,0,-189.29425278016774,-39.312385353419366Z"><title>Timpani</title></path><path fill="#e9b74b" display="" d="M-278.8266643141662,-76.00454767601268A289,289,0,0,1,-273.8829511773387,-92.24494053546512L-183.2731911946813,-61.55253989150711A193.33333333333334,193.33333333333334,0,0,0,-186.48404469100691,-51.00469442571257Z"><title>Triangle</title></path><path fill="#e9b74b" display="" d="M-273.5621260433251,-93.19207688776926A289,289,0,0,1,-267.61831670354326,-109.09370543144101L-179.09196792025725,-72.82750032939023A193.33333333333334,193.33333333333334,0,0,0,-182.95236606066769,-62.4996762438113Z"><title>Trombones</title></path><path fill="#e9b74b" display="" d="M-267.2392290509676,-110.01906405820985A289,289,0,0,1,-260.3183189518798,-125.52040797443011L-174.2178726136428,-83.82070531649269A193.33333333333334,193.33333333333334,0,0,0,-178.71288026768156,-73.75285895615912Z"><title>Trumpets</title></path><path fill="#e9b74b" display="" d="M-259.88243539722555,-126.4204088429035A289,289,0,0,1,-252.0112001954995,-141.46149644346292L-168.66976220270254,-94.48962427833841A193.33333333333334,193.33333333333334,0,0,0,-173.7819890589886,-84.72070618496613Z"><title>Tubas</title></path><path fill="#e9b74b" display="" d="M-251.52020708756183,-142.33265762512136A289,289,0,0,1,-242.72909906307018,-156.85529786408318L-162.4691012488005,-104.7929812400849A193.33333333333334,193.33333333333334,0,0,0,-168.17876909476482,-95.3607854599969Z"><title>Violas</title></path><path fill="#e9b74b" display="" d="M-242.1848959587998,-157.69424900555288A289,289,0,0,1,-232.50792620066554,-171.64225660910506L-155.63987890458245,-114.69091451525138A193.33333333333334,193.33333333333334,0,0,0,-161.9248981445301,-105.63193238155465Z"><title>Violins 1</title></path><path fill="#e9b74b" display="" d="M-231.91261851615204,-172.44575197140034A289,289,0,0,1,-221.3872253404517,-185.76516480776496L-148.20851610460423,-124.14513092283987A193.33333333333334,193.33333333333334,0,0,0,-155.04457122006895,-115.4944098775467Z"><title>Violins 2</title></path><path fill="#e9b74b" display="" d="M-220.74311620547775,-186.53009582342187A289,289,0,0,1,-209.4100203136695,-199.16938367185995L-140.20376334786909,-133.11905393621345A193.33333333333334,193.33333333333334,0,0,0,-147.56440696963026,-124.91006193849685Z"><title>Wagner Tuba</title></path><path fill="#e9b74b" display="" d="M-208.71960166134903,-199.89279097137995A289,289,0,0,1,-196.6226485997896,-211.80305488260467L-131.65658946773198,-141.57796519057217A193.33333333333334,193.33333333333334,0,0,0,-139.5133446955486,-133.8424612357335Z"><title>Xylophone</title></path><path fill="#92cf50" display="" d="M-195.88859152576433,-212.48213974367886A289,289,0,0,1,-183.07458205580784,-223.61730122039145L-122.60006181950078,-149.48913880156098A193.33333333333334,193.33333333333334,0,0,0,-130.92253239370612,-142.25705005164684Z"><title>Bassoons</title></path><path fill="#92cf50" display="" d="M-182.29972648429103,-224.2494363956188A289,289,0,0,1,-168.81823551923506,-234.56641566126228L-113.06921834925826,-156.82196797536224A193.33333333333334,193.33333333333334,0,0,0,-121.82520624798373,-150.12127397678853Z"><title>Cellos</title></path><path fill="#92cf50" display="" d="M-168.0055792159053,-235.14915554245172A289,289,0,0,1,-153.9087640252824,-244.60803820849782L-103.10093203886164,-163.54808342042963A193.33333333333334,193.33333333333334,0,0,0,-112.25656204592822,-157.40470785655188Z"><title>Clarinets</title></path><path fill="#92cf50" display="" d="M-153.06145099950479,-245.13912828825633A289,289,0,0,1,-138.40384942273883,-253.7033197752206L-92.73376825153487,-169.6414631027698A193.33333333333334,193.33333333333334,0,0,0,-102.25361901308374,-164.07917350018832Z"><title>Double basses</title></path><path fill="#92cf50" display="" d="M-137.52515776400497,-254.1807053692029A289,289,0,0,1,-122.36347721410539,-261.8170724839637L-82.00783552997136,-175.07853292013544A193.33333333333334,193.33333333333334,0,0,0,-91.85507659280073,-170.11884869675228Z"><title>Flutes</title></path><path fill="#92cf50" display="" d="M-121.45680640974197,-262.23890668004714A289,289,0,0,1,-105.84970448333928,-268.917905801733L-70.96463042417406,-179.83825790564745A193.33333333333334,193.33333333333334,0,0,0,-81.10116472560767,-175.50036711621897Z"><title>French Horns</title></path><path fill="#92cf50" display="" d="M-104.91856226655202,-269.2825566053614A289,289,0,0,1,-88.92641980905167,-274.9783479838809L-59.64687694936487,-183.90222360799532A193.33333333333334,193.33333333333334,0,0,0,-70.0334882073865,-180.20290870927593Z"><title>Oboes</title></path><path fill="#92cf50" display="" d="M-87.97440858818692,-275.2844046319347A289,289,0,0,1,-71.6590960920084,-279.9749523569498L-48.098361295069694,-187.25470733337178A193.33333333333334,193.33333333333334,0,0,0,-58.69486572849981,-184.2082802560492Z"><title>Timpani</title></path><path fill="#92cf50" display="" d="M-70.68989901353514,-280.22123077571445A289,289,0,0,1,-54.114537253196296,-283.88838802929655L-36.36376242485731,-189.88273897352101A193.33333333333334,193.33333333333334,0,0,0,-47.12916421659612,-187.5009857521365Z"><title>Trumpets</title></path><path fill="#92cf50" display="" d="M-53.131903952327946,-284.07393541541364A289,289,0,0,1,-36.36061978243058,-286.7035146785569L-24.488479222109053,-191.77615118456757A193.33333333333334,193.33333333333334,0,0,0,-35.38112912398866,-190.0682863596382Z"><title>Violas</title></path><path fill="#92cf50" display="" d="M-35.368351876514794,-286.8276131852354A289,289,0,0,1,-18.466030137402026,-288.4094411266118L-12.518454850558468,-192.92761872249477A193.33333333333334,193.33333333333334,0,0,0,-23.496211316192955,-191.90024969124607Z"><title>Violins 1</title></path><path fill="#92cf50" display="" d="M-17.467966518201695,-288.4716106408375A289,289,0,0,1,-0.4999990091156253,-288.9995674754391L-0.49999900911610584,-193.33268678309074A193.33333333333334,193.33333333333334,0,0,0,-11.520391231357825,-192.98978823672053Z"><title>Violins 2</title></path></g><g id="labels" transform="translate(402.5,300)" text-anchor="middle"><text transform="rotate(90) translate(48.333333333333336,0) rotate(180)"><tspan x="0" y="4" style="font-family: Arial, sans-serif; font-size: 10px; fill: black; font-weight: normal;"/></text><text transform="rotate(-32.97029702970297) translate(145,0) rotate(0)"><tspan x="0" y="4" style="font-family: Arial, sans-serif; font-size: 10px; fill: black; font-weight: normal;">Modern orchestra</tspan></text><text transform="rotate(70.39603960396039) translate(145,0) rotate(0)"><tspan x="0" y="4" style="font-family: Arial, sans-serif; font-size: 10px; fill: black; font-weight: normal;">Early Romantic orchestra</tspan></text><text transform="rotate(171.980198019802) translate(145,0) rotate(180)"><tspan x="0" y="4" style="font-family: Arial, sans-serif; font-size: 10px; fill: black; font-weight: normal;">Late Romantic orchestra</tspan></text><text transform="rotate(248.61386138613864) translate(145,0) rotate(180)"><tspan x="0" y="4" style="font-family: Arial, sans-serif; font-size: 10px; fill: black; font-weight: normal;">Classical orchestra</tspan></text><text transform="rotate(-88.21782178217822) translate(241.66666666666669,0) rotate(0)"><tspan x="0" y="4" style="font-family: Arial, sans-serif; font-size: 10px; fill: black; font-weight: bold;">Baritone horn</tspan></text><text transform="rotate(-84.65346534653466) translate(241.66666666666669,0) rotate(0)"><tspan x="0" y="4" style="font-family: Arial, sans-serif; font-size: 10px; fill: black; font-weight: bold;">Bass Drum</tspan></text><text transform="rotate(-81.08910891089108) translate(241.66666666666669,0) rotate(0)"><tspan x="0" y="4" style="font-family: Arial, sans-serif; font-size: 10px; fill: black; font-weight: bold;">Bassoons</tspan></text><text transform="rotate(-77.52475247524752) translate(241.66666666666669,0) rotate(0)"><tspan x="0" y="4" style="font-family: Arial, sans-serif; font-size: 10px; fill: black; font-weight: bold;">Celesta</tspan></text><text transform="rotate(-73.96039603960396) translate(241.66666666666669,0) rotate(0)"><tspan x="0" y="4" style="font-family: Arial, sans-serif; font-size: 10px; fill: black; font-weight: bold;">Cellos</tspan></text><text transform="rotate(-70.39603960396039) translate(241.66666666666669,0) rotate(0)"><tspan x="0" y="4" style="font-family: Arial, sans-serif; font-size: 10px; fill: black; font-weight: bold;">Clarinets</tspan></text><text transform="rotate(-66.83168316831683) translate(241.66666666666669,0) rotate(0)"><tspan x="0" y="4" style="font-family: Arial, sans-serif; font-size: 10px; fill: black; font-weight: bold;">Cymbals</tspan></text><text transform="rotate(-63.26732673267327) translate(241.66666666666669,0) rotate(0)"><tspan x="0" y="4" style="font-family: Arial, sans-serif; font-size: 10px; fill: black; font-weight: bold;">Double basses</tspan></text><text transform="rotate(-59.70297029702971) translate(241.66666666666669,0) rotate(0)"><tspan x="0" y="4" style="font-family: Arial, sans-serif; font-size: 10px; fill: black; font-weight: bold;">Flutes</tspan></text><text transform="rotate(-56.13861386138615) translate(241.66666666666669,0) rotate(0)"><tspan x="0" y="4" style="font-family: Arial, sans-serif; font-size: 10px; fill: black; font-weight: bold;">French Horns</tspan></text><text transform="rotate(-52.57425742574257) translate(241.66666666666669,0) rotate(0)"><tspan x="0" y="4" style="font-family: Arial, sans-serif; font-size: 10px; fill: black; font-weight: bold;">Glockenspiel</tspan></text><text transform="rotate(-49.00990099009902) translate(241.66666666666669,0) rotate(0)"><tspan x="0" y="4" style="font-family: Arial, sans-serif; font-size: 10px; fill: black; font-weight: bold;">Harps</tspan></text><text transform="rotate(-45.44554455445545) translate(241.66666666666669,0) rotate(0)"><tspan x="0" y="4" style="font-family: Arial, sans-serif; font-size: 10px; fill: black; font-weight: bold;">Marimba</tspan></text><text transform="rotate(-41.88118811881189) translate(241.66666666666669,0) rotate(0)"><tspan x="0" y="4" style="font-family: Arial, sans-serif; font-size: 10px; fill: black; font-weight: bold;">Oboes</tspan></text><text transform="rotate(-38.316831683168324) translate(241.66666666666669,0) rotate(0)"><tspan x="0" y="4" style="font-family: Arial, sans-serif; font-size: 10px; fill: black; font-weight: bold;">Piano</tspan></text><text transform="rotate(-34.752475247524764) translate(241.66666666666669,0) rotate(0)"><tspan x="0" y="4" style="font-family: Arial, sans-serif; font-size: 10px; fill: black; font-weight: bold;">Pipe organ</tspan></text><text transform="rotate(-31.188118811881196) translate(241.66666666666669,0) rotate(0)"><tspan x="0" y="4" style="font-family: Arial, sans-serif; font-size: 10px; fill: black; font-weight: bold;">Snare Drum</tspan></text><text transform="rotate(-27.623762376237636) translate(241.66666666666669,0) rotate(0)"><tspan x="0" y="4" style="font-family: Arial, sans-serif; font-size: 10px; fill: black; font-weight: bold;">Tam-tam</tspan></text><text transform="rotate(-24.05940594059406) translate(241.66666666666669,0) rotate(0)"><tspan x="0" y="4" style="font-family: Arial, sans-serif; font-size: 10px; fill: black; font-weight: bold;">Tambourine</tspan></text><text transform="rotate(-20.4950495049505) translate(241.66666666666669,0) rotate(0)"><tspan x="0" y="4" style="font-family: Arial, sans-serif; font-size: 10px; fill: black; font-weight: bold;">Tenor drum</tspan></text><text transform="rotate(-16.930693069306912) translate(241.66666666666669,0) rotate(0)"><tspan x="0" y="4" style="font-family: Arial, sans-serif; font-size: 10px; fill: black; font-weight: bold;">Timpani</tspan></text><text transform="rotate(-13.366336633663352) translate(241.66666666666669,0) rotate(0)"><tspan x="0" y="4" style="font-family: Arial, sans-serif; font-size: 10px; fill: black; font-weight: bold;">Triangle</tspan></text><text transform="rotate(-9.801980198019777) translate(241.66666666666669,0) rotate(0)"><tspan x="0" y="4" style="font-family: Arial, sans-serif; font-size: 10px; fill: black; font-weight: bold;">Trombones</tspan></text><text transform="rotate(-6.2376237623762165) translate(241.66666666666669,0) rotate(0)"><tspan x="0" y="4" style="font-family: Arial, sans-serif; font-size: 10px; fill: black; font-weight: bold;">Trumpets</tspan></text><text transform="rotate(-2.673267326732642) translate(241.66666666666669,0) rotate(0)"><tspan x="0" y="4" style="font-family: Arial, sans-serif; font-size: 10px; fill: black; font-weight: bold;">Tubas</tspan></text><text transform="rotate(0.8910891089109327) translate(241.66666666666669,0) rotate(0)"><tspan x="0" y="4" style="font-family: Arial, sans-serif; font-size: 10px; fill: black; font-weight: bold;">Tubular bells</tspan></text><text transform="rotate(4.455445544554493) translate(241.66666666666669,0) rotate(0)"><tspan x="0" y="4" style="font-family: Arial, sans-serif; font-size: 10px; fill: black; font-weight: bold;">Vibraphone</tspan></text><text transform="rotate(8.019801980198068) translate(241.66666666666669,0) rotate(0)"><tspan x="0" y="4" style="font-family: Arial, sans-serif; font-size: 10px; fill: black; font-weight: bold;">Violas</tspan></text><text transform="rotate(11.584158415841657) translate(241.66666666666669,0) rotate(0)"><tspan x="0" y="4" style="font-family: Arial, sans-serif; font-size: 10px; fill: black; font-weight: bold;">Violins 1</tspan></text><text transform="rotate(15.148514851485203) translate(241.66666666666669,0) rotate(0)"><tspan x="0" y="4" style="font-family: Arial, sans-serif; font-size: 10px; fill: black; font-weight: bold;">Violins 2</tspan></text><text transform="rotate(18.71287128712879) translate(241.66666666666669,0) rotate(0)"><tspan x="0" y="4" style="font-family: Arial, sans-serif; font-size: 10px; fill: black; font-weight: bold;">Wood block</tspan></text><text transform="rotate(22.277227722772338) translate(241.66666666666669,0) rotate(0)"><tspan x="0" y="4" style="font-family: Arial, sans-serif; font-size: 10px; fill: black; font-weight: bold;">Xylophone</tspan></text><text transform="rotate(25.841584158415813) translate(241.66666666666669,0) rotate(0)"><tspan x="0" y="4" style="font-family: Arial, sans-serif; font-size: 10px; fill: black; font-weight: bold;">Bass Clarinet</tspan></text><text transform="rotate(29.405940594059402) translate(241.66666666666669,0) rotate(0)"><tspan x="0" y="4" style="font-family: Arial, sans-serif; font-size: 10px; fill: black; font-weight: bold;">Bass Drum</tspan></text><text transform="rotate(32.970297029702934) translate(241.66666666666669,0) rotate(0)"><tspan x="0" y="4" style="font-family: Arial, sans-serif; font-size: 10px; fill: black; font-weight: bold;">Bassoons</tspan></text><text transform="rotate(36.53465346534652) translate(241.66666666666669,0) rotate(0)"><tspan x="0" y="4" style="font-family: Arial, sans-serif; font-size: 10px; fill: black; font-weight: bold;">Cellos</tspan></text><text transform="rotate(40.09900990099004) translate(241.66666666666669,0) rotate(0)"><tspan x="0" y="4" style="font-family: Arial, sans-serif; font-size: 10px; fill: black; font-weight: bold;">Clarinets</tspan></text><text transform="rotate(43.66336633663363) translate(241.66666666666669,0) rotate(0)"><tspan x="0" y="4" style="font-family: Arial, sans-serif; font-size: 10px; fill: black; font-weight: bold;">Contrabassoon</tspan></text><text transform="rotate(47.22772277227716) translate(241.66666666666669,0) rotate(0)"><tspan x="0" y="4" style="font-family: Arial, sans-serif; font-size: 10px; fill: black; font-weight: bold;">Cornet</tspan></text><text transform="rotate(50.79207920792075) translate(241.66666666666669,0) rotate(0)"><tspan x="0" y="4" style="font-family: Arial, sans-serif; font-size: 10px; fill: black; font-weight: bold;">Cymbals</tspan></text><text transform="rotate(54.35643564356428) translate(241.66666666666669,0) rotate(0)"><tspan x="0" y="4" style="font-family: Arial, sans-serif; font-size: 10px; fill: black; font-weight: bold;">Double basses</tspan></text><text transform="rotate(57.92079207920787) translate(241.66666666666669,0) rotate(0)"><tspan x="0" y="4" style="font-family: Arial, sans-serif; font-size: 10px; fill: black; font-weight: bold;">English Horn</tspan></text><text transform="rotate(61.4851485148514) translate(241.66666666666669,0) rotate(0)"><tspan x="0" y="4" style="font-family: Arial, sans-serif; font-size: 10px; fill: black; font-weight: bold;">Flutes</tspan></text><text transform="rotate(65.04950495049496) translate(241.66666666666669,0) rotate(0)"><tspan x="0" y="4" style="font-family: Arial, sans-serif; font-size: 10px; fill: black; font-weight: bold;">French Horns</tspan></text><text transform="rotate(68.6138613861385) translate(241.66666666666669,0) rotate(0)"><tspan x="0" y="4" style="font-family: Arial, sans-serif; font-size: 10px; fill: black; font-weight: bold;">Glockenspiel</tspan></text><text transform="rotate(72.17821782178208) translate(241.66666666666669,0) rotate(0)"><tspan x="0" y="4" style="font-family: Arial, sans-serif; font-size: 10px; fill: black; font-weight: bold;">Harps</tspan></text><text transform="rotate(75.74257425742562) translate(241.66666666666669,0) rotate(0)"><tspan x="0" y="4" style="font-family: Arial, sans-serif; font-size: 10px; fill: black; font-weight: bold;">Oboes</tspan></text><text transform="rotate(79.3069306930692) translate(241.66666666666669,0) rotate(0)"><tspan x="0" y="4" style="font-family: Arial, sans-serif; font-size: 10px; fill: black; font-weight: bold;">Piccolo</tspan></text><text transform="rotate(82.87128712871271) translate(241.66666666666669,0) rotate(0)"><tspan x="0" y="4" style="font-family: Arial, sans-serif; font-size: 10px; fill: black; font-weight: bold;">Snare Drum</tspan></text><text transform="rotate(86.4356435643563) translate(241.66666666666669,0) rotate(0)"><tspan x="0" y="4" style="font-family: Arial, sans-serif; font-size: 10px; fill: black; font-weight: bold;">Tambourine</tspan></text><text transform="rotate(89.99999999999986) translate(241.66666666666669,0) rotate(0)"><tspan x="0" y="4" style="font-family: Arial, sans-serif; font-size: 10px; fill: black; font-weight: bold;">Timpani</tspan></text><text transform="rotate(93.56435643564345) translate(241.66666666666669,0) rotate(180)"><tspan x="0" y="4" style="font-family: Arial, sans-serif; font-size: 10px; fill: black; font-weight: bold;">Triangle</tspan></text><text transform="rotate(97.12871287128695) translate(241.66666666666669,0) rotate(180)"><tspan x="0" y="4" style="font-family: Arial, sans-serif; font-size: 10px; fill: black; font-weight: bold;">Trombones</tspan></text><text transform="rotate(100.69306930693054) translate(241.66666666666669,0) rotate(180)"><tspan x="0" y="4" style="font-family: Arial, sans-serif; font-size: 10px; fill: black; font-weight: bold;">Trumpets</tspan></text><text transform="rotate(104.25742574257407) translate(241.66666666666669,0) rotate(180)"><tspan x="0" y="4" style="font-family: Arial, sans-serif; font-size: 10px; fill: black; font-weight: bold;">Tubas</tspan></text><text transform="rotate(107.82178217821766) translate(241.66666666666669,0) rotate(180)"><tspan x="0" y="4" style="font-family: Arial, sans-serif; font-size: 10px; fill: black; font-weight: bold;">Violas</tspan></text><text transform="rotate(111.38613861386119) translate(241.66666666666669,0) rotate(180)"><tspan x="0" y="4" style="font-family: Arial, sans-serif; font-size: 10px; fill: black; font-weight: bold;">Violins 1</tspan></text><text transform="rotate(114.95049504950478) translate(241.66666666666669,0) rotate(180)"><tspan x="0" y="4" style="font-family: Arial, sans-serif; font-size: 10px; fill: black; font-weight: bold;">Violins 2</tspan></text><text transform="rotate(118.51485148514851) translate(241.66666666666669,0) rotate(180)"><tspan x="0" y="4" style="font-family: Arial, sans-serif; font-size: 10px; fill: black; font-weight: bold;">Bass Clarinet</tspan></text><text transform="rotate(122.07920792079204) translate(241.66666666666669,0) rotate(180)"><tspan x="0" y="4" style="font-family: Arial, sans-serif; font-size: 10px; fill: black; font-weight: bold;">Bass Drum</tspan></text><text transform="rotate(125.64356435643563) translate(241.66666666666669,0) rotate(180)"><tspan x="0" y="4" style="font-family: Arial, sans-serif; font-size: 10px; fill: black; font-weight: bold;">Bassoons</tspan></text><text transform="rotate(129.20792079207914) translate(241.66666666666669,0) rotate(180)"><tspan x="0" y="4" style="font-family: Arial, sans-serif; font-size: 10px; fill: black; font-weight: bold;">Celesta</tspan></text><text transform="rotate(132.77227722772273) translate(241.66666666666669,0) rotate(180)"><tspan x="0" y="4" style="font-family: Arial, sans-serif; font-size: 10px; fill: black; font-weight: bold;">Cellos</tspan></text><text transform="rotate(136.33663366336629) translate(241.66666666666669,0) rotate(180)"><tspan x="0" y="4" style="font-family: Arial, sans-serif; font-size: 10px; fill: black; font-weight: bold;">Chimes</tspan></text><text transform="rotate(139.90099009900987) translate(241.66666666666669,0) rotate(180)"><tspan x="0" y="4" style="font-family: Arial, sans-serif; font-size: 10px; fill: black; font-weight: bold;">Clarinets</tspan></text><text transform="rotate(143.46534653465343) translate(241.66666666666669,0) rotate(180)"><tspan x="0" y="4" style="font-family: Arial, sans-serif; font-size: 10px; fill: black; font-weight: bold;">Contrabassoon</tspan></text><text transform="rotate(147.029702970297) translate(241.66666666666669,0) rotate(180)"><tspan x="0" y="4" style="font-family: Arial, sans-serif; font-size: 10px; fill: black; font-weight: bold;">Cymbals</tspan></text><text transform="rotate(150.59405940594058) translate(241.66666666666669,0) rotate(180)"><tspan x="0" y="4" style="font-family: Arial, sans-serif; font-size: 10px; fill: black; font-weight: bold;">Double basses</tspan></text><text transform="rotate(154.15841584158417) translate(241.66666666666669,0) rotate(180)"><tspan x="0" y="4" style="font-family: Arial, sans-serif; font-size: 10px; fill: black; font-weight: bold;">English Horn</tspan></text><text transform="rotate(157.72277227722776) translate(241.66666666666669,0) rotate(180)"><tspan x="0" y="4" style="font-family: Arial, sans-serif; font-size: 10px; fill: black; font-weight: bold;">Flutes</tspan></text><text transform="rotate(161.28712871287135) translate(241.66666666666669,0) rotate(180)"><tspan x="0" y="4" style="font-family: Arial, sans-serif; font-size: 10px; fill: black; font-weight: bold;">French Horns</tspan></text><text transform="rotate(164.85148514851494) translate(241.66666666666669,0) rotate(180)"><tspan x="0" y="4" style="font-family: Arial, sans-serif; font-size: 10px; fill: black; font-weight: bold;">Glockenspiel</tspan></text><text transform="rotate(168.4158415841585) translate(241.66666666666669,0) rotate(180)"><tspan x="0" y="4" style="font-family: Arial, sans-serif; font-size: 10px; fill: black; font-weight: bold;">Harps</tspan></text><text transform="rotate(171.98019801980212) translate(241.66666666666669,0) rotate(180)"><tspan x="0" y="4" style="font-family: Arial, sans-serif; font-size: 10px; fill: black; font-weight: bold;">Oboes</tspan></text><text transform="rotate(175.54455445544568) translate(241.66666666666669,0) rotate(180)"><tspan x="0" y="4" style="font-family: Arial, sans-serif; font-size: 10px; fill: black; font-weight: bold;">Piano</tspan></text><text transform="rotate(179.10891089108924) translate(241.66666666666669,0) rotate(180)"><tspan x="0" y="4" style="font-family: Arial, sans-serif; font-size: 10px; fill: black; font-weight: bold;">Piccolo</tspan></text><text transform="rotate(182.67326732673286) translate(241.66666666666669,0) rotate(180)"><tspan x="0" y="4" style="font-family: Arial, sans-serif; font-size: 10px; fill: black; font-weight: bold;">Snare Drum</tspan></text><text transform="rotate(186.23762376237642) translate(241.66666666666669,0) rotate(180)"><tspan x="0" y="4" style="font-family: Arial, sans-serif; font-size: 10px; fill: black; font-weight: bold;">Tam-tam</tspan></text><text transform="rotate(189.80198019802003) translate(241.66666666666669,0) rotate(180)"><tspan x="0" y="4" style="font-family: Arial, sans-serif; font-size: 10px; fill: black; font-weight: bold;">Tambourine</tspan></text><text transform="rotate(193.3663366336636) translate(241.66666666666669,0) rotate(180)"><tspan x="0" y="4" style="font-family: Arial, sans-serif; font-size: 10px; fill: black; font-weight: bold;">Timpani</tspan></text><text transform="rotate(196.93069306930715) translate(241.66666666666669,0) rotate(180)"><tspan x="0" y="4" style="font-family: Arial, sans-serif; font-size: 10px; fill: black; font-weight: bold;">Triangle</tspan></text><text transform="rotate(200.49504950495077) translate(241.66666666666669,0) rotate(180)"><tspan x="0" y="4" style="font-family: Arial, sans-serif; font-size: 10px; fill: black; font-weight: bold;">Trombones</tspan></text><text transform="rotate(204.05940594059433) translate(241.66666666666669,0) rotate(180)"><tspan x="0" y="4" style="font-family: Arial, sans-serif; font-size: 10px; fill: black; font-weight: bold;">Trumpets</tspan></text><text transform="rotate(207.6237623762379) translate(241.66666666666669,0) rotate(180)"><tspan x="0" y="4" style="font-family: Arial, sans-serif; font-size: 10px; fill: black; font-weight: bold;">Tubas</tspan></text><text transform="rotate(211.1881188118815) translate(241.66666666666669,0) rotate(180)"><tspan x="0" y="4" style="font-family: Arial, sans-serif; font-size: 10px; fill: black; font-weight: bold;">Violas</tspan></text><text transform="rotate(214.75247524752507) translate(241.66666666666669,0) rotate(180)"><tspan x="0" y="4" style="font-family: Arial, sans-serif; font-size: 10px; fill: black; font-weight: bold;">Violins 1</tspan></text><text transform="rotate(218.3168316831687) translate(241.66666666666669,0) rotate(180)"><tspan x="0" y="4" style="font-family: Arial, sans-serif; font-size: 10px; fill: black; font-weight: bold;">Violins 2</tspan></text><text transform="rotate(221.88118811881225) translate(241.66666666666669,0) rotate(180)"><tspan x="0" y="4" style="font-family: Arial, sans-serif; font-size: 10px; fill: black; font-weight: bold;">Wagner Tuba</tspan></text><text transform="rotate(225.44554455445586) translate(241.66666666666669,0) rotate(180)"><tspan x="0" y="4" style="font-family: Arial, sans-serif; font-size: 10px; fill: black; font-weight: bold;">Xylophone</tspan></text><text transform="rotate(229.00990099009897) translate(241.66666666666669,0) rotate(180)"><tspan x="0" y="4" style="font-family: Arial, sans-serif; font-size: 10px; fill: black; font-weight: bold;">Bassoons</tspan></text><text transform="rotate(232.5742574257426) translate(241.66666666666669,0) rotate(180)"><tspan x="0" y="4" style="font-family: Arial, sans-serif; font-size: 10px; fill: black; font-weight: bold;">Cellos</tspan></text><text transform="rotate(236.1386138613862) translate(241.66666666666669,0) rotate(180)"><tspan x="0" y="4" style="font-family: Arial, sans-serif; font-size: 10px; fill: black; font-weight: bold;">Clarinets</tspan></text><text transform="rotate(239.70297029702976) translate(241.66666666666669,0) rotate(180)"><tspan x="0" y="4" style="font-family: Arial, sans-serif; font-size: 10px; fill: black; font-weight: bold;">Double basses</tspan></text><text transform="rotate(243.26732673267333) translate(241.66666666666669,0) rotate(180)"><tspan x="0" y="4" style="font-family: Arial, sans-serif; font-size: 10px; fill: black; font-weight: bold;">Flutes</tspan></text><text transform="rotate(246.83168316831694) translate(241.66666666666669,0) rotate(180)"><tspan x="0" y="4" style="font-family: Arial, sans-serif; font-size: 10px; fill: black; font-weight: bold;">French Horns</tspan></text><text transform="rotate(250.3960396039605) translate(241.66666666666669,0) rotate(180)"><tspan x="0" y="4" style="font-family: Arial, sans-serif; font-size: 10px; fill: black; font-weight: bold;">Oboes</tspan></text><text transform="rotate(253.96039603960412) translate(241.66666666666669,0) rotate(180)"><tspan x="0" y="4" style="font-family: Arial, sans-serif; font-size: 10px; fill: black; font-weight: bold;">Timpani</tspan></text><text transform="rotate(257.5247524752477) translate(241.66666666666669,0) rotate(180)"><tspan x="0" y="4" style="font-family: Arial, sans-serif; font-size: 10px; fill: black; font-weight: bold;">Trumpets</tspan></text><text transform="rotate(261.0891089108913) translate(241.66666666666669,0) rotate(180)"><tspan x="0" y="4" style="font-family: Arial, sans-serif; font-size: 10px; fill: black; font-weight: bold;">Violas</tspan></text><text transform="rotate(264.6534653465348) translate(241.66666666666669,0) rotate(180)"><tspan x="0" y="4" style="font-family: Arial, sans-serif; font-size: 10px; fill: black; font-weight: bold;">Violins 1</tspan></text><text transform="rotate(268.21782178217836) translate(241.66666666666669,0) rotate(180)"><tspan x="0" y="4" style="font-family: Arial, sans-serif; font-size: 10px; fill: black; font-weight: bold;">Violins 2</tspan></text></g></svg>